<?xml version="1.0" encoding="UTF-8"?>
<svg version="1.1" xmlns="http://www.w3.org/2000/svg" width="52" height="70">
<path d="M0 0 C17.16 0 34.32 0 52 0 C52 23.1 52 46.2 52 70 C34.84 70 17.68 70 0 70 C0 46.9 0 23.8 0 0 Z " fill="#603635" transform="translate(0,0)"/>
<path d="M0 0 C17.16 0 34.32 0 52 0 C52 23.1 52 46.2 52 70 C34.84 70 17.68 70 0 70 C0 46.9 0 23.8 0 0 Z M15 6 C11.66987877 10.90297979 10.22885263 16.26535442 9 22 C9.66 22.33 10.32 22.66 11 23 C11.03758423 23.98395752 11.03758423 23.98395752 11.07592773 24.98779297 C11.1917326 27.95040183 11.31452886 30.91268031 11.4375 33.875 C11.47681641 34.90753906 11.51613281 35.94007812 11.55664062 37.00390625 C11.59853516 37.99003906 11.64042969 38.97617187 11.68359375 39.9921875 C11.72025146 40.90339355 11.75690918 41.81459961 11.79467773 42.75341797 C11.86577065 45.03483481 11.86577065 45.03483481 13 47 C15.31 47 17.62 47 20 47 C19.67 47.66 19.34 48.32 19 49 C18.76970044 51.37123246 18.58880058 53.74741943 18.4375 56.125 C18.35371094 57.40632813 18.26992188 58.68765625 18.18359375 60.0078125 C18.12300781 60.99523438 18.06242187 61.98265625 18 63 C19.32 63.33 20.64 63.66 22 64 C22.33 65.65 22.66 67.3 23 69 C25.97 69 28.94 69 32 69 C32.66 67.68 33.32 66.36 34 65 C36.125 63.75 36.125 63.75 38 63 C38 61.02 38 59.04 38 57 C38.66 57 39.32 57 40 57 C40.33 53.37 40.66 49.74 41 46 C43.97 46.495 43.97 46.495 47 47 C47.103125 45.948125 47.20625 44.89625 47.3125 43.8125 C48 40 48 40 49.5625 37.5625 C52.13086022 32.98411875 51.37121593 27.8467124 50.046875 22.9296875 C49.626445 21.57438831 49.19405428 20.2227437 48.75 18.875 C48.54503906 18.19824219 48.34007812 17.52148438 48.12890625 16.82421875 C46.32306017 11.16590103 44.13724868 6.38030644 39 3.0625 C35.99796709 1.99928001 34.87654441 1.78300044 32 3 C33.4540625 3.680625 33.4540625 3.680625 34.9375 4.375 C38 6 38 6 39 8 C38.154375 7.38125 37.30875 6.7625 36.4375 6.125 C29.03014649 1.19841111 21.92595775 0.10556787 15 6 Z " fill="#FCFCFC" transform="translate(0,0)"/>
<path d="M0 0 C17.16 0 34.32 0 52 0 C52 12.21 52 24.42 52 37 C51.01 37.495 51.01 37.495 50 38 C50.08701172 37.08734375 50.08701172 37.08734375 50.17578125 36.15625 C50.49945805 29.86767222 49.56648667 24.57318642 47.6875 18.625 C47.47456299 17.94759766 47.26162598 17.27019531 47.04223633 16.57226562 C45.76798239 12.7414359 44.34750687 9.29506824 42 6 C39.42900598 4.65310085 39.42900598 4.65310085 37 4 C38.32 5.32 39.64 6.64 41 8 C40.67 8.99 40.34 9.98 40 11 C39.360625 10.236875 38.72125 9.47375 38.0625 8.6875 C33.68916744 4.33894553 28.28712961 3 22.25 3 C18.0190045 4.30184477 16.61842817 5.39081523 14 9 C12.43133286 12.93704693 11.16298658 16.92629839 10 21 C10.66 21.66 11.32 22.32 12 23 C12.125 26.625 12.125 26.625 12 30 C11.34 30 10.68 30 10 30 C9.855625 30.78375 9.71125 31.5675 9.5625 32.375 C9 35 9 35 8 37 C5.125 37.125 5.125 37.125 2 37 C0 35 0 35 -0.22705078 31.56005859 C-0.22655041 30.08948026 -0.2154947 28.61887742 -0.1953125 27.1484375 C-0.19329834 26.46241455 -0.19128418 25.7763916 -0.18920898 25.06958008 C-0.17873758 22.50465213 -0.15081496 19.93981941 -0.125 17.375 C-0.08375 11.64125 -0.0425 5.9075 0 0 Z " fill="#FCFCFB" transform="translate(0,0)"/>
<path d="M0 0 C4.70133032 1.02057349 8.8880527 2.04674709 12.1953125 5.6640625 C12.5253125 6.2621875 12.8553125 6.8603125 13.1953125 7.4765625 C12.06031856 4.18508007 11.20247874 3.4805756 8.0703125 1.7265625 C7.1215625 1.3140625 6.1728125 0.9015625 5.1953125 0.4765625 C6.7578125 -0.2734375 6.7578125 -0.2734375 9.1953125 -0.5234375 C13.53481498 1.37985306 15.56122841 2.52543637 18.1953125 6.4765625 C19.19028152 9.46146955 19.39941934 10.63049179 18.1953125 13.4765625 C17.5971875 13.6209375 16.9990625 13.7653125 16.3828125 13.9140625 C14.63380846 14.3638064 12.90854227 14.90548591 11.1953125 15.4765625 C10.8653125 13.4965625 10.5353125 11.5165625 10.1953125 9.4765625 C9.8653125 11.7865625 9.5353125 14.0965625 9.1953125 16.4765625 C8.5353125 16.4765625 7.8753125 16.4765625 7.1953125 16.4765625 C6.8653125 14.4965625 6.5353125 12.5165625 6.1953125 10.4765625 C5.2053125 10.8065625 4.2153125 11.1365625 3.1953125 11.4765625 C1.30060434 11.545112 -0.5963709 11.56136622 -2.4921875 11.5390625 C-3.48605469 11.53003906 -4.47992188 11.52101563 -5.50390625 11.51171875 C-6.64279297 11.49431641 -6.64279297 11.49431641 -7.8046875 11.4765625 C-7.8046875 13.7865625 -7.8046875 16.0965625 -7.8046875 18.4765625 C-9.7846875 19.4665625 -9.7846875 19.4665625 -11.8046875 20.4765625 C-11.59972656 21.05664062 -11.39476562 21.63671875 -11.18359375 22.234375 C-9.66458937 26.6387609 -8.3999724 30.83334027 -7.8046875 35.4765625 C-6.4846875 35.4765625 -5.1646875 35.4765625 -3.8046875 35.4765625 C-3.1446875 36.1365625 -2.4846875 36.7965625 -1.8046875 37.4765625 C-1.1446875 36.4865625 -0.4846875 35.4965625 0.1953125 34.4765625 C0.3190625 35.1159375 0.4428125 35.7553125 0.5703125 36.4140625 C0.7765625 37.0946875 0.9828125 37.7753125 1.1953125 38.4765625 C1.8553125 38.8065625 2.5153125 39.1365625 3.1953125 39.4765625 C-0.2696875 39.9715625 -0.2696875 39.9715625 -3.8046875 40.4765625 C-4.4646875 42.4565625 -5.1246875 44.4365625 -5.8046875 46.4765625 C-6.1346875 45.8165625 -6.4646875 45.1565625 -6.8046875 44.4765625 C-9.1146875 44.4765625 -11.4246875 44.4765625 -13.8046875 44.4765625 C-15.03329505 42.01934741 -14.97765376 40.28491346 -15.05078125 37.5390625 C-15.10008789 36.07339844 -15.10008789 36.07339844 -15.15039062 34.578125 C-15.21158523 32.5105285 -15.26887751 30.4428128 -15.32226562 28.375 C-15.35642578 27.39789062 -15.39058594 26.42078125 -15.42578125 25.4140625 C-15.4508374 24.51558594 -15.47589355 23.61710937 -15.50170898 22.69140625 C-15.60512531 20.2729604 -15.60512531 20.2729604 -17.8046875 18.4765625 C-11.9868902 -1.90197889 -11.9868902 -1.90197889 0 0 Z " fill="#825645" transform="translate(26.8046875,2.5234375)"/>
<path d="M0 0 C1.32 0 2.64 0 4 0 C6.67927341 4.01891012 6.15601248 6.24161923 6 11 C4.35 11 2.7 11 1 11 C1.33 8.03 1.66 5.06 2 2 C1.34 2 0.68 2 0 2 C0.33 6.62 0.66 11.24 1 16 C2.65 15.67 4.3 15.34 6 15 C6.33 14.01 6.66 13.02 7 12 C7 14.97 7 17.94 7 21 C6.34 21 5.68 21 5 21 C5 22.98 5 24.96 5 27 C4.38125 27.2475 3.7625 27.495 3.125 27.75 C0.54131114 29.01039254 0.54131114 29.01039254 -1 33 C-3.97 33 -6.94 33 -10 33 C-10.33 31.35 -10.66 29.7 -11 28 C-12.32 27.67 -13.64 27.34 -15 27 C-14.85831863 25.56208484 -14.71148957 24.1246763 -14.5625 22.6875 C-14.48128906 21.88699219 -14.40007813 21.08648437 -14.31640625 20.26171875 C-14 18 -14 18 -13 15 C-9.04 15.33 -5.08 15.66 -1 16 C-1.01160156 14.92878906 -1.02320313 13.85757813 -1.03515625 12.75390625 C-1.04453299 11.35677257 -1.05363331 9.95963701 -1.0625 8.5625 C-1.07506836 7.50192383 -1.07506836 7.50192383 -1.08789062 6.41992188 C-1.09653588 4.61306441 -1.05220011 2.80612397 -1 1 C-0.67 0.67 -0.34 0.34 0 0 Z " fill="#363740" transform="translate(33,36)"/>
<path d="M0 0 C0.33 0 0.66 0 1 0 C1 2.31 1 4.62 1 7 C-0.98 7.99 -0.98 7.99 -3 9 C-2.79503906 9.58007812 -2.59007812 10.16015625 -2.37890625 10.7578125 C-0.85990187 15.1621984 0.4047151 19.35677777 1 24 C2.32 24 3.64 24 5 24 C5.66 24.66 6.32 25.32 7 26 C7.66 25.01 8.32 24.02 9 23 C9.12375 23.639375 9.2475 24.27875 9.375 24.9375 C9.58125 25.618125 9.7875 26.29875 10 27 C10.66 27.33 11.32 27.66 12 28 C9.69 28.33 7.38 28.66 5 29 C4.34 30.98 3.68 32.96 3 35 C2.67 34.34 2.34 33.68 2 33 C-0.31 33 -2.62 33 -5 33 C-6.27861615 30.44276771 -6.11336609 28.63262898 -6.09765625 25.7734375 C-6.09443359 24.7421875 -6.09121094 23.7109375 -6.08789062 22.6484375 C-6.07951172 21.56820312 -6.07113281 20.48796875 -6.0625 19.375 C-6.05798828 18.28703125 -6.05347656 17.1990625 -6.04882812 16.078125 C-6.03701776 13.38536211 -6.02054778 10.69270812 -6 8 C-5.01 8 -4.02 8 -3 8 C-2.67 6.02 -2.34 4.04 -2 2 C-1.34 2 -0.68 2 0 2 C0 1.34 0 0.68 0 0 Z " fill="#503A3E" transform="translate(18,14)"/>
<path d="M0 0 C3 3 3 3 4 5 C4.66 5 5.32 5 6 5 C6.33 6.32 6.66 7.64 7 9 C8.32 9 9.64 9 11 9 C11.33 8.34 11.66 7.68 12 7 C12.66 7 13.32 7 14 7 C13.875 10.3125 13.875 10.3125 13 14 C8.88523988 16.93911437 4.91739747 17.32506309 0 18 C-0.33 18.66 -0.66 19.32 -1 20 C-1.99 20 -2.98 20 -4 20 C-4.67756882 18.44219668 -5.34159457 16.87849904 -6 15.3125 C-6.37125 14.44238281 -6.7425 13.57226562 -7.125 12.67578125 C-8.01870488 9.9427998 -8.16449676 7.85299066 -8 5 C-5.48916886 6.25541557 -5.12874554 7.50063488 -4 10 C-3.01 9.67 -2.02 9.34 -1 9 C-0.67 6.03 -0.34 3.06 0 0 Z " fill="#FBECD9" transform="translate(23,18)"/>
<path d="M0 0 C0.33 1.98 0.66 3.96 1 6 C0.01 6.495 0.01 6.495 -1 7 C-1 5.68 -1 4.36 -1 3 C-1.66 3 -2.32 3 -3 3 C-2.67 4.98 -2.34 6.96 -2 9 C0.31 9 2.62 9 5 9 C5 9.99 5 10.98 5 12 C4.34 12 3.68 12 3 12 C2.67 12.99 2.34 13.98 2 15 C-0.475 14.505 -0.475 14.505 -3 14 C-3 12.68 -3 11.36 -3 10 C-5.475 9.01 -5.475 9.01 -8 8 C-8.77772405 10.33317216 -9.42415568 12.61435923 -10 15 C-11.32 15 -12.64 15 -14 15 C-15.125 13.25 -15.125 13.25 -16 11 C-15.1875 9.125 -15.1875 9.125 -14 7 C-13.61709538 5.00889599 -13.27395385 3.00899487 -13 1 C-11.20843648 0.83222817 -9.4167455 0.66581706 -7.625 0.5 C-6.62726562 0.4071875 -5.62953125 0.314375 -4.6015625 0.21875 C-2 0 -2 0 0 0 Z " fill="#7F594C" transform="translate(32,13)"/>
<path d="M0 0 C0 0.33 0 0.66 0 1 C-3.3 1.33 -6.6 1.66 -10 2 C-9.67 3.32 -9.34 4.64 -9 6 C-5.04 6.33 -1.08 6.66 3 7 C3 7.99 3 8.98 3 10 C0.23547967 11.38226016 -2.0461363 11.09525387 -5.125 11.0625 C-6.22070312 11.05347656 -7.31640625 11.04445313 -8.4453125 11.03515625 C-9.28835937 11.02355469 -10.13140625 11.01195312 -11 11 C-11 11.66 -11 12.32 -11 13 C-11.66 13 -12.32 13 -13 13 C-13.33 14.98 -13.66 16.96 -14 19 C-15.875 19.625 -15.875 19.625 -18 20 C-18.66 19.34 -19.32 18.68 -20 18 C-16.68032842 6.37187666 -13.38615866 -2.19445224 0 0 Z " fill="#885D45" transform="translate(29,3)"/>
<path d="M0 0 C1.4540625 0.0309375 1.4540625 0.0309375 2.9375 0.0625 C2.9375 0.7225 2.9375 1.3825 2.9375 2.0625 C3.9275 2.0625 4.9175 2.0625 5.9375 2.0625 C5.9375 7.0125 5.9375 11.9625 5.9375 17.0625 C4.32875 17.083125 2.72 17.10375 1.0625 17.125 C-0.29488281 17.14240234 -0.29488281 17.14240234 -1.6796875 17.16015625 C-4.0625 17.0625 -4.0625 17.0625 -6.0625 16.0625 C-6.3925 17.0525 -6.7225 18.0425 -7.0625 19.0625 C-7.0625 17.4125 -7.0625 15.7625 -7.0625 14.0625 C-6.4025 14.0625 -5.7425 14.0625 -5.0625 14.0625 C-4.7325 11.7525 -4.4025 9.4425 -4.0625 7.0625 C-2.0825 6.7325 -0.1025 6.4025 1.9375 6.0625 C1.2775 5.4025 0.6175 4.7425 -0.0625 4.0625 C-0.0625 4.7225 -0.0625 5.3825 -0.0625 6.0625 C-1.0525 5.7325 -2.0425 5.4025 -3.0625 5.0625 C-3.8125 3.0625 -3.8125 3.0625 -4.0625 1.0625 C-3.0625 0.0625 -3.0625 0.0625 0 0 Z " fill="#52545D" transform="translate(26.0625,34.9375)"/>
<path d="M0 0 C3.63 0 7.26 0 11 0 C12.60725635 3.21451269 12.05748185 6.43612536 12 10 C5.565 10.495 5.565 10.495 -1 11 C-2.0036454 5.98177299 -1.79132273 4.53099278 0 0 Z " fill="#4E505C" transform="translate(20,53)"/>
<path d="M0 0 C0.33 0 0.66 0 1 0 C1 9.24 1 18.48 1 28 C-3 27 -3 27 -6 26 C-5.67 20.72 -5.34 15.44 -5 10 C-3.35 9.34 -1.7 8.68 0 8 C0 5.36 0 2.72 0 0 Z " fill="#563438" transform="translate(46,19)"/>
<path d="M0 0 C2.5625 0.1875 2.5625 0.1875 4.5625 2.1875 C5.91461268 8.27200704 5.91461268 8.27200704 4.625 11.625 C4.274375 12.140625 3.92375 12.65625 3.5625 13.1875 C1.56295254 13.23004356 -0.43791636 13.22830783 -2.4375 13.1875 C-3.4375 12.1875 -3.4375 12.1875 -3.5703125 9.71875 C-3.56773438 8.7184375 -3.56515625 7.718125 -3.5625 6.6875 C-3.56507812 5.6871875 -3.56765625 4.686875 -3.5703125 3.65625 C-3.39240141 0.34919677 -3.29604127 0.25354164 0 0 Z " fill="#A9A8A7" transform="translate(4.4375,23.8125)"/>
<path d="M0 0 C0 0.33 0 0.66 0 1 C-3.3 1.33 -6.6 1.66 -10 2 C-9.67 3.32 -9.34 4.64 -9 6 C-8.01 6 -7.02 6 -6 6 C-6 7.32 -6 8.64 -6 10 C-8.64 10 -11.28 10 -14 10 C-15 7 -15 7 -14.375 4.5 C-10.87575907 -1.86225624 -6.32232757 -1.17873904 0 0 Z " fill="#A28573" transform="translate(29,3)"/>
<path d="M0 0 C3.63455982 3.63455982 4.11351654 9.19396268 4.3125 14.1875 C3.99414377 18.07144603 3.37520375 19.9597392 1 23 C0.67 23 0.34 23 0 23 C0 15.41 0 7.82 0 0 Z " fill="#988D8C" transform="translate(47,17)"/>
<path d="M0 0 C0.33 0 0.66 0 1 0 C1 2.31 1 4.62 1 7 C-0.98 7.99 -0.98 7.99 -3 9 C-2.608125 10.216875 -2.21625 11.43375 -1.8125 12.6875 C-0.96458425 16.00261504 -0.87808346 16.72133363 -2.3125 20 C-2.869375 20.66 -3.42625 21.32 -4 22 C-4.33 22 -4.66 22 -5 22 C-6.20568053 17.32798795 -6.09382426 12.78503708 -6 8 C-5.01 8 -4.02 8 -3 8 C-2.67 6.02 -2.34 4.04 -2 2 C-1.34 2 -0.68 2 0 2 C0 1.34 0 0.68 0 0 Z " fill="#603D3F" transform="translate(18,14)"/>
<path d="M0 0 C1.70840281 1.63412443 2.93453047 2.86906094 4 5 C4.66 5 5.32 5 6 5 C6 6.65 6 8.3 6 10 C5.34 10 4.68 10 4 10 C4 10.66 4 11.32 4 12 C1.09399739 13.25664978 -0.79604584 14 -4 14 C-3.525625 13.360625 -3.05125 12.72125 -2.5625 12.0625 C-0.52968613 8.07818481 -0.2789471 4.41505926 0 0 Z " fill="#FCECD9" transform="translate(23,18)"/>
<path d="M0 0 C0.66 0 1.32 0 2 0 C2.33 0.33 2.66 0.66 3 1 C5.05396726 0.59070014 5.05396726 0.59070014 7 0 C7.33 1.32 7.66 2.64 8 4 C7.34 4 6.68 4 6 4 C6 5.98 6 7.96 6 10 C4.0625 10.5625 4.0625 10.5625 2 11 C0.33657163 9.33657163 0.63951903 7.2174291 0.4375 4.9375 C0.35371094 4.01839844 0.26992188 3.09929688 0.18359375 2.15234375 C0.09271484 1.08693359 0.09271484 1.08693359 0 0 Z " fill="#52545D" transform="translate(32,53)"/>
<path d="M0 0 C1.50433594 0.01353516 1.50433594 0.01353516 3.0390625 0.02734375 C3.80992188 0.03894531 4.58078125 0.05054688 5.375 0.0625 C5.045 0.7225 4.715 1.3825 4.375 2.0625 C3.715 1.7325 3.055 1.4025 2.375 1.0625 C2.045 2.7125 1.715 4.3625 1.375 6.0625 C-1.265 5.7325 -3.905 5.4025 -6.625 5.0625 C-6.955 3.7425 -7.285 2.4225 -7.625 1.0625 C-4.98041621 -0.25979189 -2.94738699 -0.03427194 0 0 Z " fill="#7F5140" transform="translate(26.625,3.9375)"/>
<path d="M0 0 C4.2523578 0.25013869 6.47564781 0.56886598 9.8125 3.3125 C13.17557252 7.44427481 13.17557252 7.44427481 14 10 C13.625 12.25 13.625 12.25 13 14 C12.01 14 11.02 14 10 14 C9.82984375 13.38511719 9.6596875 12.77023437 9.484375 12.13671875 C8.07171671 7.1258148 8.07171671 7.1258148 5 3.0625 C4.34 2.711875 3.68 2.36125 3 2 C2.01 1.34 1.02 0.68 0 0 Z " fill="#745953" transform="translate(32,2)"/>
<path d="M0 0 C3.96 0 7.92 0 12 0 C11.34 1.65 10.68 3.3 10 5 C7.03 5 4.06 5 1 5 C0.67 3.35 0.34 1.7 0 0 Z " fill="#676366" transform="translate(22,64)"/>
<path d="M0 0 C0.99 0 1.98 0 3 0 C3 0.66 3 1.32 3 2 C2.34 2 1.68 2 1 2 C1.33 2.99 1.66 3.98 2 5 C1.67 5.66 1.34 6.32 1 7 C1.66 7 2.32 7 3 7 C3 6.01 3 5.02 3 4 C3.66 4 4.32 4 5 4 C6 7 6 7 5.0625 9.1875 C4.5365625 10.0846875 4.5365625 10.0846875 4 11 C2.35 10.67 0.7 10.34 -1 10 C-1.02689216 8.52093108 -1.04634621 7.04172517 -1.0625 5.5625 C-1.07410156 4.73878906 -1.08570312 3.91507813 -1.09765625 3.06640625 C-1 1 -1 1 0 0 Z " fill="#F5F4F1" transform="translate(3,25)"/>
<path d="M0 0 C0.66 0.33 1.32 0.66 2 1 C1.95875 1.9075 1.9175 2.815 1.875 3.75 C1.99993476 6.99830381 2.56156463 8.21303147 4 11 C4.0396713 12.66619446 4.04384447 14.33391013 4 16 C4.33 16.66 4.66 17.32 5 18 C3.02 17.34 1.04 16.68 -1 16 C-0.67 10.72 -0.34 5.44 0 0 Z " fill="#482629" transform="translate(41,29)"/>
<path d="M0 0 C2.80411009 1.40205505 3.53830878 3.26727293 5 6 C5.165 6.721875 5.33 7.44375 5.5 8.1875 C5.89906646 10.40546281 5.89906646 10.40546281 9 12 C8.01 13.485 8.01 13.485 7 15 C6.01 15 5.02 15 4 15 C3.32243118 13.44219668 2.65840543 11.87849904 2 10.3125 C1.62875 9.44238281 1.2575 8.57226562 0.875 7.67578125 C-0.01870488 4.9427998 -0.16449676 2.85299066 0 0 Z " fill="#D1B3A6" transform="translate(15,23)"/>
<path d="M0 0 C0.33 0 0.66 0 1 0 C1.98248524 4.0527516 2.08159574 7.83861737 2 12 C2.99 11.67 3.98 11.34 5 11 C5.33 12.65 5.66 14.3 6 16 C4.35 16 2.7 16 1 16 C-0.50156874 12.99686252 -0.09281204 10.20932478 -0.0625 6.875 C-0.05347656 5.59367187 -0.04445313 4.31234375 -0.03515625 2.9921875 C-0.02355469 2.00476562 -0.01195312 1.01734375 0 0 Z " fill="#5A4749" transform="translate(12,31)"/>
<path d="M0 0 C1.32 0 2.64 0 4 0 C6.67927341 4.01891012 6.15601248 6.24161923 6 11 C4.35 11 2.7 11 1 11 C1.33 8.03 1.66 5.06 2 2 C1.34 2 0.68 2 0 2 C0 1.34 0 0.68 0 0 Z " fill="#452B30" transform="translate(33,36)"/>
<path d="M0 0 C1.4540625 0.0309375 1.4540625 0.0309375 2.9375 0.0625 C2.9375 0.7225 2.9375 1.3825 2.9375 2.0625 C3.9275 2.0625 4.9175 2.0625 5.9375 2.0625 C5.9375 3.0525 5.9375 4.0425 5.9375 5.0625 C4.0625 5.6875 4.0625 5.6875 1.9375 6.0625 C1.2775 5.4025 0.6175 4.7425 -0.0625 4.0625 C-0.0625 4.7225 -0.0625 5.3825 -0.0625 6.0625 C-1.0525 5.7325 -2.0425 5.4025 -3.0625 5.0625 C-3.8125 3.0625 -3.8125 3.0625 -4.0625 1.0625 C-3.0625 0.0625 -3.0625 0.0625 0 0 Z " fill="#756B6D" transform="translate(26.0625,34.9375)"/>
<path d="M0 0 C0.66 0 1.32 0 2 0 C1.67 2.97 1.34 5.94 1 9 C2.98 8.67 4.96 8.34 7 8 C6.67 9.65 6.34 11.3 6 13 C4.35 13.33 2.7 13.66 1 14 C-0.38226016 11.23547967 -0.09525387 8.9538637 -0.0625 5.875 C-0.05347656 4.77929688 -0.04445312 3.68359375 -0.03515625 2.5546875 C-0.02355469 1.71164063 -0.01195312 0.86859375 0 0 Z " fill="#55515B" transform="translate(33,38)"/>
<path d="M0 0 C2.31 0 4.62 0 7 0 C7 0.66 7 1.32 7 2 C7.7425 2.0825 8.485 2.165 9.25 2.25 C12.51221354 3.1396946 13.80954878 4.48503749 16 7 C15.67 7.99 15.34 8.98 15 10 C14.38125 9.2575 13.7625 8.515 13.125 7.75 C9.50220244 4.06419726 4.78996079 2.66486016 0 1 C0 0.67 0 0.34 0 0 Z " fill="#D9CDC5" transform="translate(25,1)"/>
<path d="M0 0 C0.33 0 0.66 0 1 0 C0.94011859 2.12579013 0.85137256 4.25078413 0.75 6.375 C0.70359375 7.55835938 0.6571875 8.74171875 0.609375 9.9609375 C0 13 0 13 -2.046875 14.4140625 C-3.01367188 14.70410156 -3.01367188 14.70410156 -4 15 C-3.88601335 13.37419034 -3.75844341 11.74932843 -3.625 10.125 C-3.55539063 9.22007813 -3.48578125 8.31515625 -3.4140625 7.3828125 C-3 5 -3 5 -1 3 C-0.67 2.01 -0.34 1.02 0 0 Z " fill="#6E484A" transform="translate(46,14)"/>
<path d="M0 0 C0.66 0.33 1.32 0.66 2 1 C2 2.98 2 4.96 2 7 C2.66 7 3.32 7 4 7 C4 7.99 4 8.98 4 10 C2.02 10 0.04 10 -2 10 C-2.33 8.02 -2.66 6.04 -3 4 C-2.34 4 -1.68 4 -1 4 C-0.67 4.99 -0.34 5.98 0 7 C0 4.69 0 2.38 0 0 Z " fill="#663F31" transform="translate(32,12)"/>
<path d="M0 0 C0.33 0 0.66 0 1 0 C1 2.31 1 4.62 1 7 C-0.98 7.99 -0.98 7.99 -3 9 C-3 9.99 -3 10.98 -3 12 C-3.66 12 -4.32 12 -5 12 C-5.33 10.68 -5.66 9.36 -6 8 C-5.01 8 -4.02 8 -3 8 C-2.67 6.02 -2.34 4.04 -2 2 C-1.34 2 -0.68 2 0 2 C0 1.34 0 0.68 0 0 Z " fill="#603B2E" transform="translate(18,14)"/>
<path d="M0 0 C1.1577506 3.47325181 1.06866652 6.36067448 1 10 C0.67 8.68 0.34 7.36 0 6 C-2.31 6 -4.62 6 -7 6 C-6 3 -6 3 -2.9375 1.3125 C-1.968125 0.879375 -0.99875 0.44625 0 0 Z " fill="#553B3A" transform="translate(36,31)"/>
<path d="M0 0 C0.28875 0.639375 0.5775 1.27875 0.875 1.9375 C1.82823451 4.15206079 1.82823451 4.15206079 4 5 C0.8125 5.75 0.8125 5.75 -3 6 C-5.9375 4.0625 -5.9375 4.0625 -8 2 C-5.625 1.375 -5.625 1.375 -3 1 C-2.34 1.66 -1.68 2.32 -1 3 C-0.67 2.01 -0.34 1.02 0 0 Z " fill="#544D4D" transform="translate(26,37)"/>
<path d="M0 0 C0.99 0 1.98 0 3 0 C3 2.64 3 5.28 3 8 C2.01 8.33 1.02 8.66 0 9 C-0.66 8.34 -1.32 7.68 -2 7 C-1.34 4.69 -0.68 2.38 0 0 Z " fill="#72584F" transform="translate(11,14)"/>
<path d="M0 0 C0.66 0 1.32 0 2 0 C1.75 3.375 1.75 3.375 1 7 C-1.0625 8.4375 -1.0625 8.4375 -3 9 C-3.33 7.02 -3.66 5.04 -4 3 C-3.01 2.67 -2.02 2.34 -1 2 C-0.67 1.34 -0.34 0.68 0 0 Z " fill="#E0B9AF" transform="translate(35,25)"/>
<path d="M0 0 C0.33 1.98 0.66 3.96 1 6 C0.01 6.495 0.01 6.495 -1 7 C-1 5.68 -1 4.36 -1 3 C-2.65 3.66 -4.3 4.32 -6 5 C-6 3.68 -6 2.36 -6 1 C-3.92446352 0.4465236 -2.15634036 0 0 0 Z " fill="#80523F" transform="translate(32,13)"/>
<path d="M0 0 C0.66 0 1.32 0 2 0 C1.67 3.3 1.34 6.6 1 10 C0.01 10 -0.98 10 -2 10 C-1.85950482 8.52031676 -1.71245174 7.04125484 -1.5625 5.5625 C-1.48128906 4.73878906 -1.40007813 3.91507813 -1.31640625 3.06640625 C-1 1 -1 1 0 0 Z " fill="#43454C" transform="translate(20,53)"/>
<path d="M0 0 C1.98 0 3.96 0 6 0 C5.67 1.65 5.34 3.3 5 5 C3.35 4.67 1.7 4.34 0 4 C0 2.68 0 1.36 0 0 Z " fill="#4E332E" transform="translate(29,23)"/>
<path d="M0 0 C1.98 0 3.96 0 6 0 C5.34 1.65 4.68 3.3 4 5 C2.68 5 1.36 5 0 5 C0 3.35 0 1.7 0 0 Z " fill="#727070" transform="translate(28,64)"/>
<path d="M0 0 C1.32 0 2.64 0 4 0 C4.33 1.65 4.66 3.3 5 5 C3.68 5 2.36 5 1 5 C0.34 3.68 -0.32 2.36 -1 1 C-0.67 0.67 -0.34 0.34 0 0 Z " fill="#583C35" transform="translate(17,23)"/>
<path d="M0 0 C2.64 0 5.28 0 8 0 C8 0.99 8 1.98 8 3 C5.36 3 2.72 3 0 3 C0 2.01 0 1.02 0 0 Z " fill="#B18362" transform="translate(24,10)"/>
<path d="M0 0 C2.0625 0.4375 2.0625 0.4375 4 1 C3.67 2.32 3.34 3.64 3 5 C2.01 5 1.02 5 0 5 C-0.99 5.495 -0.99 5.495 -2 6 C-1.125 1.125 -1.125 1.125 0 0 Z " fill="#CFC6C8" transform="translate(25,42)"/>
<path d="M0 0 C0.66 0 1.32 0 2 0 C2 1.98 2 3.96 2 6 C1.34 6 0.68 6 0 6 C0 6.66 0 7.32 0 8 C-0.66 7.67 -1.32 7.34 -2 7 C-2 5.35 -2 3.7 -2 2 C-1.34 2 -0.68 2 0 2 C0 1.34 0 0.68 0 0 Z " fill="#5C5C65" transform="translate(30,40)"/>
<path d="M0 0 C1.70840281 1.63412443 2.93453047 2.86906094 4 5 C4.66 5 5.32 5 6 5 C5.67 5.66 5.34 6.32 5 7 C2.03 6.505 2.03 6.505 -1 6 C-0.67 4.02 -0.34 2.04 0 0 Z " fill="#E7C6B1" transform="translate(23,18)"/>
<path d="M0 0 C1.98 0.495 1.98 0.495 4 1 C3.67 2.32 3.34 3.64 3 5 C1.68 4.67 0.36 4.34 -1 4 C-0.67 2.68 -0.34 1.36 0 0 Z " fill="#B58B6C" transform="translate(15,8)"/>
<path d="M0 0 C0.66 0 1.32 0 2 0 C2.33 2.31 2.66 4.62 3 7 C2.01 7 1.02 7 0 7 C0 4.69 0 2.38 0 0 Z " fill="#444248" transform="translate(35,56)"/>
<path d="M0 0 C2.475 0.495 2.475 0.495 5 1 C5 1.99 5 2.98 5 4 C4.34 4 3.68 4 3 4 C2.67 4.66 2.34 5.32 2 6 C2 5.01 2 4.02 2 3 C1.34 2.67 0.68 2.34 0 2 C0 1.34 0 0.68 0 0 Z " fill="#90898A" transform="translate(35,53)"/>
</svg>
